# Blender v3.0.0 OBJ File: 'knife.blend'
# www.blender.org
mtllib knife.mtl
o knife_Cube.001
v -0.143058 -1.222181 0.053012
v 0.002453 0.878830 0.001511
v -0.143058 -1.222181 -0.052989
v 0.002453 0.878830 -0.001407
v 0.065223 -1.215976 0.053012
v 0.071705 0.808391 0.001511
v 0.065223 -1.215976 -0.052989
v 0.071705 0.808391 -0.001407
v -0.160191 -1.133586 0.053012
v -0.175916 -0.607895 0.053012
v -0.190112 -0.071387 0.012766
v -0.190112 -0.071387 -0.012688
v -0.175916 -0.607895 -0.052989
v -0.160191 -1.133586 -0.052989
v 0.065400 -0.056001 -0.012688
v 0.037218 -0.631119 -0.052989
v 0.083058 -1.133958 -0.052989
v 0.065400 -0.056001 0.012766
v 0.037218 -0.631119 0.053012
v 0.083058 -1.133958 0.053012
v -0.168877 -0.431951 0.053012
v -0.152134 -0.210631 0.053012
v -0.152134 -0.210631 -0.052989
v -0.168877 -0.431951 -0.052989
v 0.054830 -0.199488 -0.052989
v 0.005036 -0.388088 -0.052989
v 0.054830 -0.199488 0.053012
v 0.005036 -0.388088 0.053012
v -0.164263 0.125181 0.025225
v -0.115519 0.399592 0.025225
v -0.069828 0.643476 0.025225
v -0.069828 0.643476 -0.025120
v -0.115519 0.399592 -0.025120
v -0.164263 0.125181 -0.025120
v 0.177747 0.590848 -0.001407
v 0.178796 0.362724 -0.001407
v 0.134902 -0.026598 -0.001407
v 0.177747 0.590848 0.001511
v 0.178796 0.362724 0.001511
v 0.134902 -0.026598 0.001511
v -0.045734 0.721927 0.025225
v -0.021641 0.800378 0.025225
v -0.021641 0.800378 -0.025120
v -0.045734 0.721927 -0.025120
v 0.120343 0.738126 -0.001407
v 0.153646 0.661727 -0.001407
v 0.120343 0.738126 0.001511
v 0.153646 0.661727 0.001511
v -0.092674 0.521534 0.025225
v -0.092674 0.521534 -0.025120
v 0.183571 0.486855 -0.001407
v 0.183571 0.486855 0.001511
v -0.040748 -1.219133 -0.052989
v 0.037079 0.843611 -0.001407
v -0.040748 -1.219133 0.053012
v 0.037079 0.843611 0.001511
v -0.038229 -1.138371 0.053012
v -0.069524 -0.616418 0.053012
v -0.018751 -0.024133 0.017472
v -0.038229 -1.138371 -0.052989
v -0.069524 -0.616418 -0.052989
v -0.018751 -0.024133 -0.016189
v -0.081421 -0.410197 -0.052989
v -0.035510 -0.204352 -0.052989
v -0.081421 -0.410197 0.053012
v -0.035510 -0.204352 0.053012
v -0.014680 0.049291 0.025225
v 0.031638 0.381158 0.025225
v 0.053960 0.617162 0.025225
v -0.014680 0.049291 -0.025120
v 0.031638 0.381158 -0.025120
v 0.053960 0.617162 -0.025120
v 0.053956 0.691827 0.025225
v 0.049351 0.769252 0.025225
v 0.053956 0.691827 -0.025120
v 0.049351 0.769252 -0.025120
v 0.045449 0.504194 -0.025120
v 0.045449 0.504195 0.025225
v -0.213241 -1.139470 -0.026663
v -0.186701 -1.276708 -0.026663
v -0.039163 -1.272312 -0.026663
v 0.136783 -1.137272 -0.026663
v 0.108374 -1.267916 -0.026663
v 0.136783 -1.137272 0.026688
v 0.108374 -1.267916 0.026688
v -0.039163 -1.272312 0.026688
v -0.186701 -1.276708 0.026688
v -0.213241 -1.139470 0.026688
v -0.229150 -0.607626 0.026688
v -0.221999 -0.428880 -0.026663
v -0.229150 -0.607626 -0.026663
v 0.059156 -0.391515 -0.026663
v 0.090102 -0.625210 -0.026663
v 0.059156 -0.391515 0.026688
v 0.090102 -0.625210 0.026688
v -0.221999 -0.428880 0.026688
v -0.201660 -0.160018 0.026688
v -0.201660 -0.160018 -0.026663
v 0.124919 -0.142435 -0.026663
v 0.124919 -0.142435 0.026688
v -0.038370 -0.151226 -0.040589
v -0.038370 -0.151226 0.040612
vt 0.467220 0.333292
vt 0.467220 0.355681
vt 0.466366 0.355681
vt 0.466366 0.333292
vt 0.336454 0.606195
vt 0.336454 0.648400
vt 0.313060 0.648400
vt 0.313060 0.606195
vt 0.467220 0.367335
vt 0.467220 0.378989
vt 0.466366 0.378989
vt 0.466366 0.367335
vt 0.646419 0.055628
vt 0.645237 0.070559
vt 0.589266 0.071151
vt 0.597103 0.055345
vt 0.623737 0.309566
vt 0.574852 0.312078
vt 0.632066 0.523615
vt 0.639799 0.582461
vt 0.576059 0.558541
vt 0.569642 0.518666
vt 0.308215 0.563991
vt 0.308215 0.600059
vt 0.284821 0.600059
vt 0.284821 0.563991
vt 0.308215 0.747986
vt 0.284821 0.747986
vt 0.308215 0.884183
vt 0.301357 0.911294
vt 0.291659 0.911294
vt 0.284821 0.884183
vt 0.312881 0.922940
vt 0.312928 0.885861
vt 0.348311 0.881467
vt 0.348624 0.912735
vt 0.295305 0.689872
vt 0.344435 0.695212
vt 0.303633 0.475823
vt 0.311390 0.416961
vt 0.350388 0.430480
vt 0.373379 0.455150
vt 0.279977 0.563991
vt 0.279977 0.602163
vt 0.256583 0.602163
vt 0.256583 0.563991
vt 0.279977 0.753421
vt 0.256583 0.753421
vt 0.279977 0.882288
vt 0.273139 0.908039
vt 0.263441 0.908039
vt 0.256583 0.882288
vt 0.279977 0.804736
vt 0.256583 0.804736
vt 0.287025 0.595435
vt 0.326353 0.584157
vt 0.305249 0.500411
vt 0.346593 0.496992
vt 0.308215 0.815897
vt 0.284821 0.815897
vt 0.615457 0.404003
vt 0.575668 0.392875
vt 0.633681 0.499027
vt 0.580309 0.494614
vt 0.467220 0.111298
vt 0.467220 0.222155
vt 0.466366 0.222155
vt 0.466367 0.111298
vt 0.467220 0.257888
vt 0.467220 0.288238
vt 0.466366 0.288238
vt 0.466366 0.257888
vt 0.467220 0.309772
vt 0.466366 0.309772
vt 0.654785 0.415281
vt 0.675025 0.502446
vt 0.656565 0.305456
vt 0.247235 0.606563
vt 0.251876 0.504824
vt 0.246420 0.687361
vt 0.239755 0.485878
vt 0.244327 0.444772
vt 0.256957 0.885269
vt 0.258274 0.912894
vt 0.699720 0.531024
vt 0.671985 0.565539
vt 0.679855 0.075716
vt 0.670959 0.063390
vt 0.336454 0.563991
vt 0.313060 0.563991
vt 0.239439 0.938222
vt 0.236244 0.888409
vt 0.314759 0.947055
vt 0.373406 0.882024
vt 0.369538 0.935736
vt 0.687261 0.049617
vt 0.707720 0.068084
vt 0.637841 0.030589
vt 0.563608 0.095388
vt 0.569965 0.051549
vt 0.555793 0.311758
vt 0.230188 0.688456
vt 0.231016 0.607146
vt 0.343104 0.584761
vt 0.358942 0.693100
vt 0.684841 0.304813
vt 0.672682 0.411601
vt 0.558467 0.393227
vt 0.671571 0.872670
vt 0.664674 0.896215
vt 0.663825 0.896215
vt 0.656929 0.872670
vt 0.331548 0.052254
vt 0.338321 0.042212
vt 0.345625 0.046885
vt 0.361907 0.066075
vt 0.661210 0.929957
vt 0.662441 0.953129
vt 0.651838 0.963308
vt 0.648544 0.939611
vt 0.640497 0.616097
vt 0.586271 0.646480
vt 0.657180 0.768932
vt 0.606083 0.767456
vt 0.661824 0.825550
vt 0.664177 0.877480
vt 0.631682 0.882386
vt 0.619806 0.830458
vt 0.925839 0.146074
vt 0.918780 0.179660
vt 0.917440 0.179660
vt 0.910387 0.146074
vt 0.312064 0.383340
vt 0.382162 0.415886
vt 0.328748 0.230505
vt 0.400822 0.236728
vt 0.333392 0.173887
vt 0.335745 0.121957
vt 0.393339 0.132102
vt 0.402860 0.180501
vt 0.669143 0.614874
vt 0.671571 0.672533
vt 0.656929 0.672533
vt 0.659353 0.614874
vt 0.671571 0.753516
vt 0.656929 0.753516
vt 0.671571 0.789548
vt 0.671571 0.825581
vt 0.656929 0.825581
vt 0.656929 0.789548
vt 0.663152 0.911729
vt 0.638575 0.916228
vt 0.334720 0.087708
vt 0.381320 0.099906
vt 0.671571 0.849126
vt 0.656929 0.849126
vt 0.725380 0.762709
vt 0.725868 0.819711
vt 0.278867 0.227859
vt 0.289993 0.174725
vt 0.313414 0.083738
vt 0.321309 0.055472
vt 0.306545 0.116165
vt 0.706072 0.900306
vt 0.684828 0.931061
vt 0.720804 0.867142
vt 0.255634 0.358247
vt 0.710597 0.583551
vt 0.673045 0.942950
vt 0.327945 0.032252
vn 0.8222 0.5692 0.0000
vn 0.0298 -0.9996 0.0000
vn 0.7131 0.7011 0.0000
vn 0.0000 0.0000 1.0000
vn -0.0848 0.1806 0.9799
vn 0.9772 -0.2125 0.0000
vn 0.9959 0.0908 0.0000
vn 0.8236 0.5671 0.0000
vn 0.0000 0.0000 -1.0000
vn 0.0867 0.1919 -0.9776
vn -0.9818 -0.1899 0.0000
vn -0.9996 -0.0299 0.0000
vn -0.9916 0.1292 0.0000
vn -0.9992 0.0400 -0.0000
vn -0.9972 0.0754 -0.0000
vn 0.9913 0.1313 0.0000
vn 0.9669 -0.2553 0.0000
vn 0.9937 -0.1120 0.0000
vn 0.9984 0.0559 0.0000
vn 0.9468 0.3219 0.0000
vn 0.9167 0.3996 0.0000
vn 0.9993 -0.0384 0.0000
vn -0.0821 0.1860 -0.9791
vn 0.0911 0.1868 0.9782
vn -0.4354 -0.0842 -0.8963
vn 0.0132 -0.4433 -0.8963
vn 0.4334 -0.0942 -0.8963
vn 0.4334 -0.0942 0.8963
vn 0.0132 -0.4433 0.8963
vn -0.4354 -0.0842 0.8963
vn -0.4433 -0.0133 0.8963
vn -0.4432 0.0177 -0.8963
vn -0.4433 -0.0133 -0.8963
vn 0.4397 0.0582 -0.8963
vn 0.4417 0.0403 -0.8963
vn 0.4396 0.0582 0.8963
vn 0.4416 0.0403 0.8963
vn -0.4431 0.0177 0.8963
vn -0.4422 0.0335 0.8963
vn -0.4422 0.0335 -0.8963
vn 0.4288 -0.1132 -0.8963
vn 0.4288 -0.1132 0.8963
vn 0.0353 0.3121 -0.9494
vn -0.0643 0.3204 0.9451
vn -0.0643 0.3204 -0.9451
vn 0.0353 0.3121 0.9494
vn -0.9559 0.2936 0.0000
vn 0.3873 0.3057 -0.8698
vn 0.1755 0.2794 0.9440
vn -0.0211 -0.0723 0.9972
vn 0.3896 -0.9210 0.0000
vn 0.0949 -0.0452 -0.9945
vn 0.1519 -0.0190 -0.9882
vn 0.1778 -0.0022 -0.9841
vn -0.9915 0.1304 -0.0000
vn -0.9846 0.1749 -0.0000
vn -0.9829 0.1841 -0.0000
vn 0.2161 0.0358 -0.9757
vn 0.2908 0.0717 -0.9541
vn 0.1625 -0.0122 -0.9866
vn 0.1625 -0.0122 0.9866
vn 0.2908 0.0717 0.9541
vn 0.2161 0.0358 0.9757
vn -0.0177 -0.0769 -0.9969
vn 0.1778 -0.0022 0.9841
vn 0.1519 -0.0190 0.9882
vn 0.1026 -0.0396 0.9939
vn 0.3873 0.3057 0.8698
vn 0.1755 0.2794 -0.9440
usemtl w
s off
f 45/1/1 8/2/1 6/3/1 47/4/1
f 81/5/2 83/6/2 85/7/2 86/8/2
f 54/9/3 4/10/3 2/11/3 56/12/3
f 55/13/4 57/14/4 9/15/4 1/16/4
f 57/14/4 58/17/4 10/18/4 9/15/4
f 102/19/5 59/20/5 11/21/5 97/22/5
f 83/23/6 82/24/6 84/25/6 85/26/6
f 82/24/7 93/27/7 95/28/7 84/25/7
f 99/29/8 15/30/8 18/31/8 100/32/8
f 53/33/9 60/34/9 17/35/9 7/36/9
f 60/34/9 61/37/9 16/38/9 17/35/9
f 101/39/10 62/40/10 15/41/10 99/42/10
f 87/43/11 88/44/11 79/45/11 80/46/11
f 88/44/12 89/47/12 91/48/12 79/45/12
f 97/49/13 11/50/13 12/51/13 98/52/13
f 89/47/14 96/53/14 90/54/14 91/48/14
f 96/53/15 97/49/15 98/52/15 90/54/15
f 61/37/9 63/55/9 26/56/9 16/38/9
f 63/55/9 64/57/9 25/58/9 26/56/9
f 93/27/16 92/59/16 94/60/16 95/28/16
f 92/59/17 99/29/17 100/32/17 94/60/17
f 58/17/4 65/61/4 21/62/4 10/18/4
f 65/61/4 66/63/4 22/64/4 21/62/4
f 37/65/18 36/66/18 39/67/18 40/68/18
f 51/69/19 35/70/19 38/71/19 52/72/19
f 35/70/20 46/73/20 48/74/20 38/71/20
f 46/73/21 45/1/21 47/4/21 48/74/21
f 36/66/22 51/69/22 52/72/22 39/67/22
f 28/75/4 27/76/4 66/63/4 65/61/4
f 19/77/4 28/75/4 65/61/4 58/17/4
f 24/78/9 23/79/9 64/57/9 63/55/9
f 13/80/9 24/78/9 63/55/9 61/37/9
f 98/81/23 12/82/23 62/40/23 101/39/23
f 14/83/9 13/80/9 61/37/9 60/34/9
f 3/84/9 14/83/9 60/34/9 53/33/9
f 100/85/24 18/86/24 59/20/24 102/19/24
f 20/87/4 19/77/4 58/17/4 57/14/4
f 5/88/4 20/87/4 57/14/4 55/13/4
f 8/2/3 54/9/3 56/12/3 6/3/3
f 80/89/2 81/5/2 86/8/2 87/90/2
f 14/83/25 3/84/25 80/91/25 79/92/25
f 3/84/26 53/33/26 81/93/26 80/91/26
f 7/36/27 17/35/27 82/94/27 83/95/27
f 20/87/28 5/88/28 85/96/28 84/97/28
f 5/88/29 55/13/29 86/98/29 85/96/29
f 1/16/30 9/15/30 88/99/30 87/100/30
f 9/15/31 10/18/31 89/101/31 88/99/31
f 24/78/32 13/80/32 91/102/32 90/103/32
f 13/80/33 14/83/33 79/92/33 91/102/33
f 16/38/34 26/56/34 92/104/34 93/105/34
f 17/35/35 16/38/35 93/105/35 82/94/35
f 28/75/36 19/77/36 95/106/36 94/107/36
f 19/77/37 20/87/37 84/97/37 95/106/37
f 10/18/38 21/62/38 96/108/38 89/101/38
f 21/62/39 22/64/39 97/22/39 96/108/39
f 23/79/40 24/78/40 90/103/40 98/81/40
f 26/56/41 25/58/41 99/42/41 92/104/41
f 27/76/42 28/75/42 94/107/42 100/85/42
f 25/58/43 64/57/43 101/39/43 99/42/43
f 22/64/44 66/63/44 102/19/44 97/22/44
f 53/33/26 7/36/26 83/95/26 81/93/26
f 55/13/29 1/16/29 87/100/29 86/98/29
f 64/57/45 23/79/45 98/81/45 101/39/45
f 66/63/46 27/76/46 100/85/46 102/19/46
usemtl blade
f 42/109/47 2/110/47 4/111/47 43/112/47
f 76/113/48 54/114/48 8/115/48 45/116/48
f 74/117/49 56/118/49 2/119/49 42/120/49
f 59/20/50 67/121/50 29/122/50 11/21/50
f 67/121/4 68/123/4 30/124/4 29/122/4
f 78/125/4 69/126/4 31/127/4 49/128/4
f 15/129/51 37/130/51 40/131/51 18/132/51
f 62/40/52 70/133/52 37/134/52 15/41/52
f 70/133/53 71/135/53 36/136/53 37/134/53
f 77/137/54 72/138/54 35/139/54 51/140/54
f 11/141/55 29/142/55 34/143/55 12/144/55
f 29/142/56 30/145/56 33/146/56 34/143/56
f 49/147/57 31/148/57 32/149/57 50/150/57
f 69/126/4 73/151/4 41/152/4 31/127/4
f 73/151/4 74/117/4 42/120/4 41/152/4
f 72/138/58 75/153/58 46/154/58 35/139/58
f 75/153/59 76/113/59 45/116/59 46/154/59
f 31/148/47 41/155/47 44/156/47 32/149/47
f 41/155/47 42/109/47 43/112/47 44/156/47
f 30/145/57 49/147/57 50/150/57 33/146/57
f 71/135/60 77/137/60 51/140/60 36/136/60
f 68/123/4 78/125/4 49/128/4 30/124/4
f 39/157/61 52/158/61 78/125/61 68/123/61
f 33/159/9 50/160/9 77/137/9 71/135/9
f 44/161/9 43/162/9 76/113/9 75/153/9
f 32/163/9 44/161/9 75/153/9 72/138/9
f 48/164/62 47/165/62 74/117/62 73/151/62
f 38/166/63 48/164/63 73/151/63 69/126/63
f 50/160/9 32/163/9 72/138/9 77/137/9
f 34/167/9 33/159/9 71/135/9 70/133/9
f 12/82/64 34/167/64 70/133/64 62/40/64
f 52/158/65 38/166/65 69/126/65 78/125/65
f 40/168/66 39/157/66 68/123/66 67/121/66
f 18/86/67 40/168/67 67/121/67 59/20/67
f 47/165/68 6/169/68 56/118/68 74/117/68
f 43/162/69 4/170/69 54/114/69 76/113/69
